<svg width="1121" height="1121" viewBox="0 0 1121 1121" fill="none" xmlns="http://www.w3.org/2000/svg">
<g clip-path="url(#clip0_276_2149)">
<path d="M1012.19 0H108.731C48.6807 0 0 48.6807 0 108.731V1012.19C0 1072.24 48.6807 1120.92 108.731 1120.92H1012.19C1072.24 1120.92 1120.92 1072.24 1120.92 1012.19V108.731C1120.92 48.6807 1072.24 0 1012.19 0Z" fill="#D8051D"/>
<mask id="mask0_276_2149" style="mask-type:luminance" maskUnits="userSpaceOnUse" x="0" y="0" width="1121" height="1121">
<path d="M1012.19 0H108.731C48.6807 0 0 48.6807 0 108.731V1012.19C0 1072.24 48.6807 1120.92 108.731 1120.92H1012.19C1072.24 1120.92 1120.92 1072.24 1120.92 1012.19V108.731C1120.92 48.6807 1072.24 0 1012.19 0Z" fill="white"/>
</mask>
<g mask="url(#mask0_276_2149)">
<g opacity="0.15">
<path d="M1099.61 831.98C1094.81 755.289 1053.37 680.853 982.88 618.683C932.692 576.813 893.219 563.984 827.947 538.326C878.698 407.924 891.668 344.344 887.439 276.394C877.712 122.73 764.367 12.2039 619.443 21.0854C498.627 28.5571 406.006 97.4948 385.282 226.77C378.938 296.976 400.367 349.278 429.267 380.856C470.996 426.251 544.726 452.331 570.666 462.905C523.016 545.658 361.739 869.338 186.365 903.455C68.3683 922.204 49.4775 818.305 46.376 780.523L45.8121 767.131L20.8594 768.682L23.3969 809.987L23.6789 814.358C28.0491 886.255 65.4078 965.625 119.966 1025.12C140.689 1047.81 166.206 1065.86 194.542 1077.56C319.729 1129.3 434.765 1080.1 533.166 989.732C613.241 1037.8 640.308 1056.13 673.437 1071.36C725.176 1093.35 781.989 1103.08 837.956 1099.69C997.259 1089.97 1108.63 976.48 1099.75 831.98H1099.61ZM518.646 355.763C500.601 249.044 550.365 152.052 576.728 109.195C604.923 66.6206 645.242 40.5405 677.103 49.7039C696.557 55.343 705.862 77.3352 700.082 111.31C684.292 205.905 623.673 362.248 582.508 441.758L586.596 434.568C585.609 436.26 584.2 438.938 582.226 442.322C582.226 442.04 582.508 441.899 582.508 441.758L582.085 442.322C580.816 444.577 579.265 447.257 577.574 450.076L581.944 442.322C552.339 430.903 523.862 389.034 518.223 355.763H518.646ZM867.561 862.149C821.18 945.607 734.762 1019.62 632.977 1003.69C616.483 1001.15 607.038 997.767 554.454 969.29C671.323 852.139 762.957 680.289 817.515 561.164C851.772 573.852 870.945 599.933 879.685 618.683C903.792 669.716 926.771 755.289 867.42 862.149H867.561Z" fill="#1A1A1A"/>
<path d="M233.582 725.395C311.824 720.601 371.316 653.215 366.523 574.973C361.73 496.732 294.343 437.24 216.101 442.033C137.86 446.826 78.3679 514.213 83.1611 592.454C87.9543 670.696 155.341 730.188 233.582 725.395Z" fill="white"/>
</g>
</g>
<path d="M568.688 -112.411C940.308 -112.411 1241.57 188.844 1241.57 560.468C1241.57 932.092 940.308 1233.35 568.688 1233.35C197.066 1233.35 -104.193 932.091 -104.193 560.468C-104.193 188.845 197.066 -112.411 568.688 -112.411Z" stroke="#BC081D" stroke-width="355.848"/>
<path d="M609.247 380.39H689.044C666.415 406.592 652.123 433.389 642.595 472.692L567.563 772.228H517.541L435.957 516.759L351.992 772.228H304.352L224.555 472.692C215.623 438.153 203.713 407.187 181.679 380.39H328.172C322.813 388.131 321.026 401.828 321.026 417.311C321.026 434.58 323.408 453.636 326.981 469.714L366.284 654.915L420.474 469.714C406.182 425.052 395.463 401.232 378.194 380.39H524.091C518.732 388.131 515.754 401.232 515.754 416.12C515.754 432.793 518.732 451.254 523.496 469.714L571.136 651.937L611.034 469.714C614.607 454.827 616.393 437.557 616.393 422.075C616.393 404.21 614.011 388.727 609.247 380.39ZM803.05 419.693C784.589 419.693 771.488 431.007 771.488 448.276C771.488 473.287 785.78 490.557 835.207 522.118L884.038 553.084C916.79 574.522 946.565 601.915 946.565 650.746C946.565 722.801 889.993 776.992 822.106 776.992C771.488 776.992 717.298 746.621 695.86 679.926L765.533 634.668C793.522 705.532 822.701 732.329 853.072 732.329C873.319 732.329 886.42 717.442 886.42 699.577C886.42 674.566 875.701 657.892 838.78 635.263L772.679 594.769C732.781 570.354 704.792 550.702 704.792 496.512C704.792 431.603 763.747 374.435 856.049 374.435C881.06 374.435 911.431 379.199 935.846 384.558L918.577 519.141C896.543 475.074 850.094 419.693 803.05 419.693Z" fill="white"/>
</g>
<defs>
<clipPath id="clip0_276_2149">
<rect width="1120.92" height="1120.92" rx="98.8468" fill="white"/>
</clipPath>
</defs>
</svg>
